<?xml version="1.0" encoding="UTF-8" standalone="no"?>
<!-- Generator: Adobe Illustrator 16.0.0, SVG Export Plug-In . SVG Version: 6.00 Build 0)  -->

<svg
   xmlns:dc="http://purl.org/dc/elements/1.1/"
   xmlns:cc="http://creativecommons.org/ns#"
   xmlns:rdf="http://www.w3.org/1999/02/22-rdf-syntax-ns#"
   xmlns:svg="http://www.w3.org/2000/svg"
   xmlns="http://www.w3.org/2000/svg"
   xmlns:sodipodi="http://sodipodi.sourceforge.net/DTD/sodipodi-0.dtd"
   xmlns:inkscape="http://www.inkscape.org/namespaces/inkscape"
   version="1.1"
   id="Capa_1"
   x="0px"
   y="0px"
   width="444.819px"
   height="444.819px"
   viewBox="0 0 444.819 444.819"
   style="enable-background:new 0 0 444.819 444.819;"
   xml:space="preserve"
   sodipodi:docname="arrow_up_white.svg"
   inkscape:version="0.92.3 (2405546, 2018-03-11)"><metadata
   id="metadata41"><rdf:RDF><cc:Work
       rdf:about=""><dc:format>image/svg+xml</dc:format><dc:type
         rdf:resource="http://purl.org/dc/dcmitype/StillImage" /></cc:Work></rdf:RDF></metadata><defs
   id="defs39" /><sodipodi:namedview
   pagecolor="#ffffff"
   bordercolor="#666666"
   borderopacity="1"
   objecttolerance="10"
   gridtolerance="10"
   guidetolerance="10"
   inkscape:pageopacity="0"
   inkscape:pageshadow="2"
   inkscape:window-width="2493"
   inkscape:window-height="1025"
   id="namedview37"
   showgrid="false"
   inkscape:zoom="0.53055288"
   inkscape:cx="-104.60786"
   inkscape:cy="222.4095"
   inkscape:window-x="67"
   inkscape:window-y="27"
   inkscape:window-maximized="1"
   inkscape:current-layer="Capa_1" />
<g
   id="g4"
   style="fill:#ffffff"
   transform="matrix(1,0,0,-1,0,444.82)">
	<path
   d="M 434.252,114.203 412.843,92.787 c -7.419,-7.04 -16.084,-10.561 -25.975,-10.561 -10.095,0 -18.657,3.521 -25.7,10.561 L 222.41,231.549 83.653,92.791 C 76.611,85.751 68.047,82.23 57.956,82.23 48.06,82.23 39.397,85.751 31.977,92.791 L 10.849,114.207 C 3.615,121.436 0,130.099 0,140.188 c 0,10.277 3.619,18.842 10.848,25.693 l 185.864,185.865 c 6.855,7.23 15.416,10.848 25.697,10.848 10.088,0 18.75,-3.617 25.977,-10.848 L 434.251,165.881 c 7.043,-7.044 10.567,-15.608 10.567,-25.693 0.001,-9.901 -3.523,-18.559 -10.566,-25.985 z"
   id="path2"
   style="fill:#ffffff"
   inkscape:connector-curvature="0" />
</g>
<g
   id="g6">
</g>
<g
   id="g8">
</g>
<g
   id="g10">
</g>
<g
   id="g12">
</g>
<g
   id="g14">
</g>
<g
   id="g16">
</g>
<g
   id="g18">
</g>
<g
   id="g20">
</g>
<g
   id="g22">
</g>
<g
   id="g24">
</g>
<g
   id="g26">
</g>
<g
   id="g28">
</g>
<g
   id="g30">
</g>
<g
   id="g32">
</g>
<g
   id="g34">
</g>
</svg>