<?xml version="1.0" encoding="UTF-8" standalone="no"?>
<!-- Svg Vector Icons : http://www.onlinewebfonts.com/icon -->

<svg
   xmlns:dc="http://purl.org/dc/elements/1.1/"
   xmlns:cc="http://creativecommons.org/ns#"
   xmlns:rdf="http://www.w3.org/1999/02/22-rdf-syntax-ns#"
   xmlns:svg="http://www.w3.org/2000/svg"
   xmlns="http://www.w3.org/2000/svg"
   xmlns:sodipodi="http://sodipodi.sourceforge.net/DTD/sodipodi-0.dtd"
   xmlns:inkscape="http://www.inkscape.org/namespaces/inkscape"
   version="1.1"
   x="0px"
   y="0px"
   viewBox="0 0 1000 1000"
   enable-background="new 0 0 1000 1000"
   xml:space="preserve"
   id="svg2"
   inkscape:version="0.91 r13725"
   sodipodi:docname="centre.svg"><defs
     id="defs14" /><sodipodi:namedview
     pagecolor="#ffffff"
     bordercolor="#666666"
     borderopacity="1"
     objecttolerance="10"
     gridtolerance="10"
     guidetolerance="10"
     inkscape:pageopacity="0"
     inkscape:pageshadow="2"
     inkscape:window-width="1861"
     inkscape:window-height="1056"
     id="namedview12"
     showgrid="false"
     inkscape:zoom="0.236"
     inkscape:cx="500"
     inkscape:cy="500"
     inkscape:window-x="59"
     inkscape:window-y="24"
     inkscape:window-maximized="1"
     inkscape:current-layer="svg2" /><metadata
     id="metadata4"> Svg Vector Icons : http://www.onlinewebfonts.com/icon <rdf:RDF><cc:Work
     rdf:about=""><dc:format>image/svg+xml</dc:format><dc:type
       rdf:resource="http://purl.org/dc/dcmitype/StillImage" /></cc:Work></rdf:RDF></metadata><g
     id="g6"
     style="fill:#ffffff"><g
       transform="translate(0.000000,511.000000) scale(0.100000,-0.100000)"
       id="g8"
       style="fill:#ffffff"><path
         d="M4941,5007.8c-25.9-4.3-73.3-38.8-103.5-73.3l-53.9-66.8v-719.9v-719.9h-73.3c-112.1,0-435.4-60.3-648.8-120.7c-1254.4-357.8-2254.5-1549.7-2373.1-2830l-15.1-153H955.7H235.8L169,263.8c-56-51.7-69-77.6-69-155.2S112.9,5.2,169-46.5l66.8-60.3h719.9h717.7l15.1-153c17.3-198.3,81.9-478.5,163.8-717.7C2257.5-2171.7,3402-3087.8,4630.6-3202l153-15.1v-717.7v-715.6l53.9-64.7c64.7-75.4,148.7-97,239.3-58.2c137.9,58.2,137.9,53.9,137.9,840.6v713.4l224.2,25.9c1028.1,122.9,2004.5,799.6,2502.4,1732.9c191.8,362.1,340.5,838.4,368.6,1187.6l15.1,166h713.4c788.9,0,784.6,0,842.7,137.9c38.8,90.5,17.2,174.6-58.2,239.2l-64.7,53.9h-715.6h-717.7l-15.1,172.4c-38.8,480.6-267.3,1075.5-586.3,1536.8c-174.6,250-597,661.7-860,838.4c-454.8,303.9-1013,508.7-1502.3,549.6l-146.6,12.9v717.7V4872l-58.2,62.5C5094,4999.2,5025,5022.9,4941,5007.8z M4783.6,2307.1c0-448.3,8.6-704.8,23.7-739.3c12.9-28,49.6-66.8,84.1-86.2c94.8-56,168.1-45.3,250,36.6l73.3,73.3v704.8v707l146.6-15.1c601.4-60.4,1215.6-364.3,1685.5-832c331.9-329.8,571.2-715.6,711.3-1142.3c69-206.9,129.3-500,129.3-616.4v-73.3h-689.7c-750.1,0-784.6-4.3-836.3-118.5c-15.1-30.2-25.9-75.4-25.9-99.2c0-64.7,64.7-163.8,122.9-189.7c34.5-15.1,291-23.7,739.3-23.7h689.7v-73.3c0-40.9-15.1-153-34.5-250c-217.7-1157.4-1140.2-2084.2-2297.6-2308.4c-116.4-21.6-241.4-40.9-275.9-40.9h-64.7v702.6v702.7l-73.3,73.3c-77.6,77.6-144.4,90.5-239.3,47.4c-114.2-51.7-118.5-86.2-118.5-836.3v-689.7h-66.8c-112.1,0-480.6,84-681.1,153c-698.3,247.9-1299.7,778.1-1635.9,1448.4C2261.8-904.4,2111-372,2111-158.6v51.7h702.7h702.7l73.3,73.3c81.9,81.9,92.7,155.2,36.6,250c-19.4,34.5-58.2,71.1-86.2,84.1c-34.5,15.1-291,23.7-739.3,23.7H2111v51.7c0,114.2,71.1,446.2,140.1,653.1c282.4,844.9,941.9,1515.2,1789,1817c206.9,73.3,530.2,146.6,663.8,148.7l79.8,2.2V2307.1z"
         id="path10"
         style="fill:#ffffff" /></g></g></svg>