<?xml version="1.0" encoding="UTF-8" standalone="no"?>
<svg
   xmlns:dc="http://purl.org/dc/elements/1.1/"
   xmlns:cc="http://creativecommons.org/ns#"
   xmlns:rdf="http://www.w3.org/1999/02/22-rdf-syntax-ns#"
   xmlns:svg="http://www.w3.org/2000/svg"
   xmlns="http://www.w3.org/2000/svg"
   xmlns:sodipodi="http://sodipodi.sourceforge.net/DTD/sodipodi-0.dtd"
   xmlns:inkscape="http://www.inkscape.org/namespaces/inkscape"
   id="Layer_1"
   style="enable-background:new 0 0 512 512;"
   version="1.1"
   viewBox="0 0 512 512"
   xml:space="preserve"
   inkscape:version="0.91 r13725"
   sodipodi:docname="delete.svg"><metadata
     id="metadata13"><rdf:RDF><cc:Work
         rdf:about=""><dc:format>image/svg+xml</dc:format><dc:type
           rdf:resource="http://purl.org/dc/dcmitype/StillImage" /></cc:Work></rdf:RDF></metadata><defs
     id="defs11" /><sodipodi:namedview
     pagecolor="#ffffff"
     bordercolor="#666666"
     borderopacity="1"
     objecttolerance="10"
     gridtolerance="10"
     guidetolerance="10"
     inkscape:pageopacity="0"
     inkscape:pageshadow="2"
     inkscape:window-width="1861"
     inkscape:window-height="1056"
     id="namedview9"
     showgrid="false"
     inkscape:zoom="0.4609375"
     inkscape:cx="256"
     inkscape:cy="256"
     inkscape:window-x="59"
     inkscape:window-y="24"
     inkscape:window-maximized="1"
     inkscape:current-layer="Layer_1" /><g
     id="g3"
     style="fill:#ffffff;fill-opacity:1"><path
       d="M89.4,100l26.2,347.9c2.5,32.5,29.6,58.1,60.7,58.1h159.3c31.1,0,58.2-25.6,60.7-58.1L422.6,100H89.4z M190.1,460.8   c0.3,7.1-5.1,12.7-12,12.7s-12.7-5.7-13.1-12.7l-14.6-296.6c-0.5-9.6,5.7-17.4,13.8-17.4s14.9,7.8,15.3,17.4L190.1,460.8z    M268.5,460.8c0,7.1-5.7,12.7-12.5,12.7s-12.5-5.7-12.5-12.7l-2-296.6c-0.1-9.6,6.4-17.4,14.5-17.4c8.1,0,14.6,7.8,14.5,17.4   L268.5,460.8z M346.9,460.8c-0.3,7.1-6.2,12.7-13.1,12.7s-12.2-5.7-12-12.7l10.6-296.6c0.3-9.6,7.2-17.4,15.3-17.4   c8.1,0,14.3,7.8,13.8,17.4L346.9,460.8z"
       id="path5"
       style="fill:#ffffff;fill-opacity:1" /><path
       d="M445.3,82.8H66.7v0c-1.8-21.1,10.7-38.4,27.9-38.4h322.9C434.6,44.4,447.1,61.8,445.3,82.8L445.3,82.8z"
       id="XMLID_2_"
       style="fill:#ffffff;fill-opacity:1" /><path
       d="M324.3,58.6H187.7l-0.2-7.8C186.7,26.3,202.1,6,221.9,6h68.3c19.7,0,35.1,20.3,34.4,44.7L324.3,58.6z"
       id="XMLID_1_"
       style="fill:#ffffff;fill-opacity:1" /></g></svg>