<?xml version="1.0" encoding="UTF-8" standalone="no"?>
<svg
   xmlns:dc="http://purl.org/dc/elements/1.1/"
   xmlns:cc="http://creativecommons.org/ns#"
   xmlns:rdf="http://www.w3.org/1999/02/22-rdf-syntax-ns#"
   xmlns:svg="http://www.w3.org/2000/svg"
   xmlns="http://www.w3.org/2000/svg"
   xmlns:sodipodi="http://sodipodi.sourceforge.net/DTD/sodipodi-0.dtd"
   xmlns:inkscape="http://www.inkscape.org/namespaces/inkscape"
   height="383.97501"
   id="Layer_1"
   version="1.1"
   viewBox="0 0 383.97501 383.97501"
   width="383.97501"
   xml:space="preserve"
   inkscape:version="0.91 r13725"
   sodipodi:docname="edit.svg"><metadata
     id="metadata17"><rdf:RDF><cc:Work
         rdf:about=""><dc:format>image/svg+xml</dc:format><dc:type
           rdf:resource="http://purl.org/dc/dcmitype/StillImage" /><dc:title /></cc:Work></rdf:RDF></metadata><defs
     id="defs15" /><sodipodi:namedview
     pagecolor="#ffffff"
     bordercolor="#666666"
     borderopacity="1"
     objecttolerance="10"
     gridtolerance="10"
     guidetolerance="10"
     inkscape:pageopacity="0"
     inkscape:pageshadow="2"
     inkscape:window-width="2501"
     inkscape:window-height="1056"
     id="namedview13"
     showgrid="false"
     inkscape:zoom="0.4609375"
     inkscape:cx="217.38689"
     inkscape:cy="-636.1569"
     inkscape:window-x="59"
     inkscape:window-y="24"
     inkscape:window-maximized="1"
     inkscape:current-layer="Layer_1"
     fit-margin-top="0"
     fit-margin-left="0"
     fit-margin-right="0"
     fit-margin-bottom="0" /><g
     id="g3"
     style="fill:#ffffff"
     transform="translate(-64,-64.025)"><path
       d="M 442.8,99.6 412.4,69.2 c -7,-6.9 -18.2,-6.9 -25.1,0 l -31.8,31.8 55.5,55.5 31.8,-31.7 c 6.9,-7.1 6.9,-18.3 0,-25.2 z"
       id="path5"
       style="fill:#ffffff"
       inkscape:connector-curvature="0" /><g
       id="g7"
       style="fill:#ffffff"><polygon
         points="224,337.9 400.6,164.9 346.1,110.5 174.1,288 160,352 "
         id="polygon9"
         style="fill:#ffffff" /></g><path
       d="m 384,256 0,150 c 0,5.1 -3.9,10.1 -9.2,10.1 -5.3,0 -269,-0.1 -269,-0.1 -5.6,0 -9.8,-5.4 -9.8,-10 0,-4.6 0,-268 0,-268 0,-5 4.7,-10 10.6,-10 L 256,128 288,96 87.4,96 C 74.4,96 64,106.3 64,119.3 l 0,305.3 c 0,12.9 10.5,23.4 23.4,23.4 l 305.3,0 c 12.9,0 23.3,-10.5 23.3,-23.4 l 0,-200.6 -32,32 z"
       id="path11"
       style="fill:#ffffff"
       inkscape:connector-curvature="0" /></g></svg>