<?xml version="1.0" encoding="UTF-8" standalone="no"?>
<svg
   xmlns:dc="http://purl.org/dc/elements/1.1/"
   xmlns:cc="http://creativecommons.org/ns#"
   xmlns:rdf="http://www.w3.org/1999/02/22-rdf-syntax-ns#"
   xmlns:svg="http://www.w3.org/2000/svg"
   xmlns="http://www.w3.org/2000/svg"
   xmlns:sodipodi="http://sodipodi.sourceforge.net/DTD/sodipodi-0.dtd"
   xmlns:inkscape="http://www.inkscape.org/namespaces/inkscape"
   viewBox="0 0 256 256"
   version="1.1"
   id="svg20"
   sodipodi:docname="icon.svg"
   inkscape:version="0.92.3 (2405546, 2018-03-11)"
   width="256"
   height="256"
   inkscape:export-filename="/home/ricardo/Libraries/translator-minimal-app/resources/icon_app.png"
   inkscape:export-xdpi="96"
   inkscape:export-ydpi="96">
  <metadata
     id="metadata24">
    <rdf:RDF>
      <cc:Work
         rdf:about="">
        <dc:format>image/svg+xml</dc:format>
        <dc:type
           rdf:resource="http://purl.org/dc/dcmitype/StillImage" />
        <dc:title>LangsHub-Icon-Rounded-Others</dc:title>
      </cc:Work>
    </rdf:RDF>
  </metadata>
  <sodipodi:namedview
     pagecolor="#ffffff"
     bordercolor="#666666"
     borderopacity="1"
     objecttolerance="10"
     gridtolerance="10"
     guidetolerance="10"
     inkscape:pageopacity="0"
     inkscape:pageshadow="2"
     inkscape:window-width="2493"
     inkscape:window-height="1025"
     id="namedview22"
     showgrid="false"
     inkscape:zoom="3.2791748"
     inkscape:cx="81.622411"
     inkscape:cy="139.6938"
     inkscape:window-x="67"
     inkscape:window-y="27"
     inkscape:window-maximized="1"
     inkscape:current-layer="g828" />
  <defs
     id="defs4">
    <style
       id="style2">.cls-1{fill:#444242;}.cls-2{fill:#f7f7f8;opacity:0.18;}.cls-3{fill:#211915;}.cls-4{fill:#db9600;}.cls-5{fill:#e6b54a;}</style>
  </defs>
  <title
     id="title6">LangsHub-Icon-Rounded-Others</title>
  <g
     id="Capa_2"
     data-name="Capa 2"
     transform="matrix(3.7866277,0,0,3.7866277,-38.345743,-569.40297)">
    <g
       id="g828"
       transform="matrix(1.1520205,0,0,1.139053,-8.6815865,-24.866844)">
      <rect
         style="opacity:1;fill:#c7c7c7;fill-opacity:1;stroke-width:0.23328337"
         id="rect11"
         rx="1.9222549"
         height="33.247547"
         width="21.849321"
         y="166.89891"
         x="22.994148"
         class="cls-2" />
      <path
         sodipodi:nodetypes="sssssccsssszsssscccs"
         inkscape:connector-curvature="0"
         style="fill:#000001;fill-opacity:1;stroke-width:0.23328337;stroke:none;stroke-opacity:1"
         id="path13"
         d="m 51.361397,200.08581 c 0,0.38258 -0.42457,0.69985 -0.93313,0.69985 h -11.39356 c -0.52255,0 -0.93313,-0.31027 -0.93313,-0.69985 0,-0.38959 0.42224,-0.69985 0.93313,-0.69985 h 4.72399 v -31.72654 h -4.60502 c -0.55054,0 -0.99845,-0.31027 -0.99845,-0.69985 0,-0.38958 0.44791,-0.69985 0.99845,-0.69985 0,0 3.47842,0.006 5.03426,0 0.45544,-0.002 0.33511,0.69985 0.57854,0.69985 0.24344,0 0.14119,-0.70177 0.57621,-0.69985 1.4194,0.006 5.02026,0 5.02026,0 0.55288,0 0.99845,0.31027 0.99845,0.69985 0,0.38958 -0.44557,0.69985 -0.99845,0.69985 h -4.60735 v 31.74987 h 4.66567 c 0.51556,-0.0117 0.94013,0.2986 0.94013,0.67652 z"
         class="cls-3" />
      <path
         style="fill:#0088aa;stroke-width:0.25252077"
         inkscape:connector-curvature="0"
         id="path15"
         d="m 67.205017,192.38869 a 15.20175,15.20175 0 0 1 -4.94941,2.16915 26.262159,26.262159 0 0 1 -5.91403,0.71211 h -0.75757 a 7.1690644,7.1690644 0 0 1 -0.73231,-0.0455 3.5731688,3.5731688 0 0 1 -1.05301,-0.30303 11.805346,11.805346 0 0 1 -1.24493,-0.6313 14.626002,14.626002 0 0 1 -1.2626,-0.82322 q -0.62878,-0.45453 -1.14644,-0.88634 a 0.61362545,0.61362545 0 0 1 -0.18182,-0.29798 2.2095567,2.2095567 0 0 1 -0.0581,-0.62372 c 0,-0.36616 0.0707,-0.5505 0.20707,-0.5505 a 4.3332563,4.3332563 0 0 1 0.58332,0.0859 c 0.29545,0.0556 0.68433,0.11616 1.1616,0.17929 0.47726,0.0631 1.04543,0.12626 1.69694,0.18434 0.6515,0.0581 1.38128,0.0884 2.1843,0.0934 l 0.8712,-1.54795 a 2.1994558,2.1994558 0 0 0 0.14141,-0.50504 c 0.0379,-0.21717 0.0682,-0.45202 0.0934,-0.70454 0.0252,-0.25252 0.0429,-0.50504 0.0581,-0.77776 0.0151,-0.27272 0.0227,-0.50504 0.0252,-0.74494 -0.0328,-0.80554 -0.0808,-1.74744 -0.14898,-2.83328 -0.0682,-1.08584 -0.13636,-2.18936 -0.20707,-3.32065 -0.0707,-1.13129 -0.14141,-2.23733 -0.20707,-3.31307 -0.0656,-1.07574 -0.11111,-2.02017 -0.13383,-2.82318 q -0.0253,-0.40909 -0.0303,-0.75756 c 0,-0.25253 0,-0.46717 0,-0.68686 a 3.0302491,3.0302491 0 0 1 -0.34342,-0.88887 4.2575,4.2575 0 0 1 -0.11111,-0.97221 4.1009372,4.1009372 0 0 1 0.0934,-0.82827 7.5756228,7.5756228 0 0 1 0.25252,-0.89645 c 0.10101,-0.30807 0.21717,-0.61615 0.34595,-0.92927 0.12879,-0.31313 0.2702,-0.6111 0.41666,-0.89645 0.0556,-0.10859 0.11111,-0.16414 0.16667,-0.16414 0.0556,0 0.11616,0.0631 0.13383,0.18434 a 5.5857592,5.5857592 0 0 0 0.0934,0.75756 3.722156,3.722156 0 0 0 0.20706,0.68686 5.95949,5.95949 0 0 0 0.37878,0.75756 q 0.2399,0.40151 0.61868,0.93433 a 1.6211833,1.6211833 0 0 1 0.25252,0.44949 1.4166415,1.4166415 0 0 1 0.053,0.38888 3.3989294,3.3989294 0 0 1 -0.0859,0.65403 7.2145182,7.2145182 0 0 1 -0.20959,0.75756 6.0276706,6.0276706 0 0 1 -0.27777,0.67423 0.88382266,0.88382266 0 0 1 -0.30555,0.38636 q 0.0353,1.22725 0.0808,2.65651 0.0455,1.42927 0.0934,2.87369 c 0.0328,0.9621 0.0606,1.90148 0.0884,2.82066 0.0278,0.91917 0.0429,1.76764 0.048,2.5252 0,0.40909 -0.0177,0.82827 -0.0429,1.26261 a 11.43414,11.43414 0 0 1 -0.12374,1.17422 q 0.75757,-1.12119 1.64391,-2.33077 a 22.221827,22.221827 0 0 1 1.86866,-2.21713 11.292728,11.292728 0 0 1 1.97471,-1.65654 3.5857948,3.5857948 0 0 1 1.97724,-0.6414 2.5403589,2.5403589 0 0 1 1.41411,0.48737 5.8079775,5.8079775 0 0 1 1.30049,1.22472 6.6337204,6.6337204 0 0 1 0.94947,1.63886 4.5908274,4.5908274 0 0 1 0.36111,1.73987 9.5957889,9.5957889 0 0 1 -0.17424,1.72724 10.527591,10.527591 0 0 1 -0.47474,1.67422 10.232141,10.232141 0 0 1 -0.72221,1.51512 6.9872495,6.9872495 0 0 1 -0.93685,1.2222 z m -9.7473,-0.77019 a 25.206622,25.206622 0 0 0 3.78781,-0.35605 19.105721,19.105721 0 0 0 3.07318,-0.79039 9.7043729,9.7043729 0 0 0 2.25248,-1.12372 4.2676009,4.2676009 0 0 0 1.31563,-1.35099 3.7650846,3.7650846 0 0 0 -0.3308,-1.08583 5.510003,5.510003 0 0 0 -0.71968,-1.16918 4.391336,4.391336 0 0 0 -1.03534,-0.94442 2.3055146,2.3055146 0 0 0 -1.29038,-0.39646 2.9494425,2.9494425 0 0 0 -1.62118,0.58332 10.58567,10.58567 0 0 0 -1.81058,1.58331 21.701634,21.701634 0 0 0 -1.8535,2.31056 q -0.93937,1.31564 -1.76764,2.73985 z m 4.50244,-17.96432 a 3.9746768,3.9746768 0 0 1 0.48989,-0.82322 0.70453292,0.70453292 0 0 1 0.5303,-0.31565 0.85099497,0.85099497 0 0 1 0.40403,0.14646 2.6211655,2.6211655 0 0 1 0.59595,0.57575 3.9241726,3.9241726 0 0 1 0.55049,0.80049 1.7954226,1.7954226 0 0 1 0.19444,0.83837 2.3484431,2.3484431 0 0 1 -0.0985,0.59342 5.4721249,5.4721249 0 0 1 -0.33333,0.83584 4.2196219,4.2196219 0 0 1 -0.49241,0.85605 0.69190689,0.69190689 0 0 1 -0.52777,0.32323 0.85099497,0.85099497 0 0 1 -0.39141,-0.13637 2.590863,2.590863 0 0 1 -0.60605,-0.56312 3.648925,3.648925 0 0 1 -0.53787,-0.83837 1.9317838,1.9317838 0 0 1 -0.18939,-0.81059 2.7777284,2.7777284 0 0 1 0.0934,-0.6414 5.0933438,5.0933438 0 0 1 0.31817,-0.84089 z"
         class="cls-4" />
      <path
         style="fill:#22241c;fill-opacity:1;stroke-width:0.25252077"
         inkscape:connector-curvature="0"
         id="path17"
         d="m 41.000937,192.74727 a 3.2246901,3.2246901 0 0 1 -0.0707,0.73231 2.396422,2.396422 0 0 1 -0.16161,0.50504 0.56564651,0.56564651 0 0 1 -0.25252,0.2702 0.78281436,0.78281436 0 0 1 -0.34848,0.0783 h -12.87856 a 1.0782637,1.0782637 0 0 1 -0.80301,-0.31565 c -0.20707,-0.20959 -0.31313,-0.56312 -0.31313,-1.06059 v -0.75756 a 2.9090392,2.9090392 0 0 1 0.048,-0.56312 2.8181317,2.8181317 0 0 1 0.13889,-0.50504 3.5681184,3.5681184 0 0 1 0.25252,-0.5303 c 0.10858,-0.18939 0.23989,-0.4015 0.39393,-0.64392 l 9.23973,-13.95935 h -8.94933 a 0.66918002,0.66918002 0 0 1 -0.59343,-0.37121 2.4974303,2.4974303 0 0 1 -0.21969,-1.20957 4.853449,4.853449 0 0 1 0.0454,-0.70959 1.4848221,1.4848221 0 0 1 0.15152,-0.50504 0.64645315,0.64645315 0 0 1 0.25252,-0.27019 0.75756228,0.75756228 0 0 1 0.3611,-0.0783 h 11.99474 a 1.3838138,1.3838138 0 0 1 0.45201,0.0682 0.75756228,0.75756228 0 0 1 0.33838,0.22475 1.1136166,1.1136166 0 0 1 0.21969,0.40656 2.0201661,2.0201661 0 0 1 0.0808,0.6313 v 0.72221 a 3.5681184,3.5681184 0 0 1 -0.0455,0.58837 3.2827699,3.2827699 0 0 1 -0.13888,0.5303 4.3458823,4.3458823 0 0 1 -0.25252,0.55302 c -0.10859,0.19444 -0.25252,0.41413 -0.39646,0.65402 l -9.18166,13.95683 h 9.81044 a 0.70705813,0.70705813 0 0 1 0.33585,0.0783 0.63382711,0.63382711 0 0 1 0.25252,0.25252 1.7247168,1.7247168 0 0 1 0.17424,0.48484 3.2499422,3.2499422 0 0 1 0.0631,0.74241 z"
         class="cls-5" />
    </g>
  </g>
</svg>
