<?xml version="1.0" encoding="UTF-8" standalone="no"?>
<svg
   xmlns:dc="http://purl.org/dc/elements/1.1/"
   xmlns:cc="http://creativecommons.org/ns#"
   xmlns:rdf="http://www.w3.org/1999/02/22-rdf-syntax-ns#"
   xmlns:svg="http://www.w3.org/2000/svg"
   xmlns="http://www.w3.org/2000/svg"
   xmlns:sodipodi="http://sodipodi.sourceforge.net/DTD/sodipodi-0.dtd"
   xmlns:inkscape="http://www.inkscape.org/namespaces/inkscape"
   enable-background="new 0 0 39 115"
   height="116.583"
   id="Layer_1"
   version="1.1"
   viewBox="0 0 41.057934 116.583"
   width="41.057934"
   xml:space="preserve"
   inkscape:version="0.91 r13725"
   sodipodi:docname="info.svg"><metadata
     id="metadata13"><rdf:RDF><cc:Work
         rdf:about=""><dc:format>image/svg+xml</dc:format><dc:type
           rdf:resource="http://purl.org/dc/dcmitype/StillImage" /><dc:title></dc:title></cc:Work></rdf:RDF></metadata><defs
     id="defs11" /><sodipodi:namedview
     pagecolor="#ffffff"
     bordercolor="#666666"
     borderopacity="1"
     objecttolerance="10"
     gridtolerance="10"
     guidetolerance="10"
     inkscape:pageopacity="0"
     inkscape:pageshadow="2"
     inkscape:window-width="2501"
     inkscape:window-height="1056"
     id="namedview9"
     showgrid="false"
     inkscape:zoom="2.0521739"
     inkscape:cx="20.830935"
     inkscape:cy="60.294802"
     inkscape:window-x="59"
     inkscape:window-y="24"
     inkscape:window-maximized="1"
     inkscape:current-layer="Layer_1"
     fit-margin-top="1"
     fit-margin-left="1"
     fit-margin-right="1"
     fit-margin-bottom="1" /><g
     id="g3"
     style="fill:#ffffff"
     transform="translate(1.3309346,-0.21700001)"><path
       d="M 26.102,91.63 29.474,78.041 36.939,47.953 C 38.269,42.593 35.001,37.17 29.641,35.84 L 28.67,35.599 c -0.652,-0.162 -1.303,-0.252 -1.949,-0.283 l 0.008,-0.199 c 0,0 -0.161,0.072 -0.437,0.197 -3.072,-0.011 -7.561,2.97 -7.561,2.97 -8.72,6.079 -20.654,14.141 -18.886,17.981 2.678,5.816 15.748,-9.487 12.618,3.131 L 9.091,72.984 1.626,103.072 c -1.33,5.361 1.504,10.676 6.864,12.006 l 0.971,0.241 c 0.652,0.161 1.303,0.253 1.95,0.282 l -0.009,0.199 c 0,0 0.162,-0.071 0.438,-0.197 3.072,0.012 7.561,-2.97 7.561,-2.97 8.72,-6.079 20.871,-14.087 19.103,-17.928 -2.68,-5.815 -15.532,9.542 -12.402,-3.075 z"
       id="path5"
       style="fill:#ffffff"
       inkscape:connector-curvature="0" /><circle
       cx="24.726999"
       cy="15.217"
       r="14"
       id="circle7"
       style="fill:#ffffff" /></g></svg>