<?xml version="1.0" encoding="UTF-8" standalone="no"?>
<!-- Generator: Adobe Illustrator 19.0.0, SVG Export Plug-In . SVG Version: 6.00 Build 0)  -->

<svg
   xmlns:dc="http://purl.org/dc/elements/1.1/"
   xmlns:cc="http://creativecommons.org/ns#"
   xmlns:rdf="http://www.w3.org/1999/02/22-rdf-syntax-ns#"
   xmlns:svg="http://www.w3.org/2000/svg"
   xmlns="http://www.w3.org/2000/svg"
   xmlns:sodipodi="http://sodipodi.sourceforge.net/DTD/sodipodi-0.dtd"
   xmlns:inkscape="http://www.inkscape.org/namespaces/inkscape"
   version="1.1"
   id="Layer_1"
   x="0px"
   y="0px"
   viewBox="0 0 512.001 512.001"
   style="enable-background:new 0 0 512.001 512.001;"
   xml:space="preserve"
   sodipodi:docname="interchange.svg"
   inkscape:version="0.92.3 (2405546, 2018-03-11)"><metadata
   id="metadata49"><rdf:RDF><cc:Work
       rdf:about=""><dc:format>image/svg+xml</dc:format><dc:type
         rdf:resource="http://purl.org/dc/dcmitype/StillImage" /></cc:Work></rdf:RDF></metadata><defs
   id="defs47" /><sodipodi:namedview
   pagecolor="#ffffff"
   bordercolor="#666666"
   borderopacity="1"
   objecttolerance="10"
   gridtolerance="10"
   guidetolerance="10"
   inkscape:pageopacity="0"
   inkscape:pageshadow="2"
   inkscape:window-width="640"
   inkscape:window-height="480"
   id="namedview45"
   showgrid="false"
   inkscape:zoom="0.46093662"
   inkscape:cx="256.00049"
   inkscape:cy="256.00049"
   inkscape:window-x="67"
   inkscape:window-y="27"
   inkscape:window-maximized="0"
   inkscape:current-layer="Layer_1" />
<g
   id="g6"
   style="fill:#ffffff">
	<g
   id="g4"
   style="fill:#ffffff">
		<path
   d="M505.183,123.18L388.82,6.817c-9.087-9.089-23.823-9.089-32.912,0c-9.089,9.089-9.089,23.823,0,32.912l76.635,76.636    H23.274c-12.853,0-23.273,10.42-23.273,23.273c0,12.853,10.42,23.273,23.273,23.273h409.269l-76.634,76.635    c-9.089,9.089-9.089,23.824,0,32.912c4.543,4.544,10.499,6.816,16.455,6.816c5.956,0,11.913-2.271,16.455-6.817l116.364-116.364    C514.272,147.004,514.272,132.269,505.183,123.18z"
   id="path2"
   style="fill:#ffffff" />
	</g>
</g>
<g
   id="g12"
   style="fill:#ffffff">
	<g
   id="g10"
   style="fill:#ffffff">
		<path
   d="M488.728,349.092H79.459l76.634-76.636c9.089-9.089,9.089-23.823,0-32.912c-9.087-9.089-23.823-9.089-32.912,0    L6.817,355.907c-9.089,9.089-9.089,23.823,0,32.912L123.18,505.183c4.546,4.546,10.501,6.817,16.457,6.817    c5.956,0,11.913-2.271,16.455-6.817c9.089-9.089,9.089-23.824,0-32.912l-76.634-76.634h409.27    c12.853,0,23.273-10.42,23.273-23.273C512.001,359.512,501.581,349.092,488.728,349.092z"
   id="path8"
   style="fill:#ffffff" />
	</g>
</g>
<g
   id="g14">
</g>
<g
   id="g16">
</g>
<g
   id="g18">
</g>
<g
   id="g20">
</g>
<g
   id="g22">
</g>
<g
   id="g24">
</g>
<g
   id="g26">
</g>
<g
   id="g28">
</g>
<g
   id="g30">
</g>
<g
   id="g32">
</g>
<g
   id="g34">
</g>
<g
   id="g36">
</g>
<g
   id="g38">
</g>
<g
   id="g40">
</g>
<g
   id="g42">
</g>
</svg>