<?xml version="1.0" encoding="UTF-8" standalone="no"?>
<svg
   xmlns:dc="http://purl.org/dc/elements/1.1/"
   xmlns:cc="http://creativecommons.org/ns#"
   xmlns:rdf="http://www.w3.org/1999/02/22-rdf-syntax-ns#"
   xmlns:svg="http://www.w3.org/2000/svg"
   xmlns="http://www.w3.org/2000/svg"
   xmlns:sodipodi="http://sodipodi.sourceforge.net/DTD/sodipodi-0.dtd"
   xmlns:inkscape="http://www.inkscape.org/namespaces/inkscape"
   id="solid"
   viewBox="0 0 479.99966 479.40891"
   version="1.1"
   inkscape:version="0.91 r13725"
   sodipodi:docname="palette.svg"
   width="479.99966"
   height="479.40891">
  <metadata
     id="metadata11">
    <rdf:RDF>
      <cc:Work
         rdf:about="">
        <dc:format>image/svg+xml</dc:format>
        <dc:type
           rdf:resource="http://purl.org/dc/dcmitype/StillImage" />
        <dc:title></dc:title>
      </cc:Work>
    </rdf:RDF>
  </metadata>
  <defs
     id="defs9" />
  <sodipodi:namedview
     pagecolor="#ffffff"
     bordercolor="#666666"
     borderopacity="1"
     objecttolerance="10"
     gridtolerance="10"
     guidetolerance="10"
     inkscape:pageopacity="0"
     inkscape:pageshadow="2"
     inkscape:window-width="2501"
     inkscape:window-height="1056"
     id="namedview7"
     showgrid="false"
     inkscape:zoom="0.4609375"
     inkscape:cx="240"
     inkscape:cy="239.70003"
     inkscape:window-x="59"
     inkscape:window-y="24"
     inkscape:window-maximized="1"
     inkscape:current-layer="solid"
     fit-margin-top="0"
     fit-margin-left="0"
     fit-margin-right="0"
     fit-margin-bottom="0" />
  <path
     d="M 409.705,70.295888 A 238.427,238.427 0 0 0 240,8.8786903e-4 C 176.144,8.8786903e-4 116.05,21.059888 70.788,59.300888 25.14,97.862888 0,149.25289 0,204.00089 c 0,52.418 23.319,102.223 65.663,140.24 41.8,37.534 98.163,60.027 158.7,63.335 a 8.039,8.039 0 0 1 7.64,7.987 l 0,39.846 a 24.019,24.019 0 0 0 24.054,24 q 0.873,0 1.747,-0.064 A 240.007,240.007 0 0 0 409.704,70.289888 Z M 104,191.70889 a 40,40 0 1 1 40,-40 40,40 0 0 1 -40,40 z m 112,-64 a 40,40 0 1 1 40,-40.000002 40,40 0 0 1 -40,40.000002 z m 80,-8 a 40,40 0 1 1 40,40 40,40 0 0 1 -40,-40 z m 96,152 a 40,40 0 1 1 40,-40 40,40 0 0 1 -40,40 z"
     style="fill:#ffffff"
     id="path5"
     inkscape:connector-curvature="0" />
</svg>
