<svg id="light" enable-background="new 0 0 24 24" height="512" viewBox="0 0 24 24" width="512" xmlns="http://www.w3.org/2000/svg"><g><path d="m10.5 21h-8c-1.378 0-2.5-1.122-2.5-2.5v-13c0-1.378 1.122-2.5 2.5-2.5h2c.276 0 .5.224.5.5s-.224.5-.5.5h-2c-.827 0-1.5.673-1.5 1.5v13c0 .827.673 1.5 1.5 1.5h8c.276 0 .5.224.5.5s-.224.5-.5.5z"/></g><g><path d="m16.5 9c-.276 0-.5-.224-.5-.5v-3c0-.827-.673-1.5-1.5-1.5h-2c-.276 0-.5-.224-.5-.5s.224-.5.5-.5h2c1.378 0 2.5 1.122 2.5 2.5v3c0 .276-.224.5-.5.5z"/></g><g><path d="m11.5 6h-6c-.827 0-1.5-.673-1.5-1.5v-2c0-.276.224-.5.5-.5h1.55c.233-1.14 1.242-2 2.45-2s2.217.86 2.45 2h1.55c.276 0 .5.224.5.5v2c0 .827-.673 1.5-1.5 1.5zm-6.5-3v1.5c0 .276.224.5.5.5h6c.276 0 .5-.224.5-.5v-1.5h-1.5c-.276 0-.5-.224-.5-.5 0-.827-.673-1.5-1.5-1.5s-1.5.673-1.5 1.5c0 .276-.224.5-.5.5z"/></g><g><path d="m22.5 24h-9c-.827 0-1.5-.673-1.5-1.5v-11c0-.827.673-1.5 1.5-1.5h6.171c.667 0 1.295.26 1.768.732l1.829 1.829c.472.472.732 1.1.732 1.768v8.171c0 .827-.673 1.5-1.5 1.5zm-9-13c-.276 0-.5.224-.5.5v11c0 .276.224.5.5.5h9c.276 0 .5-.224.5-.5v-8.171c0-.395-.16-.781-.439-1.061l-1.829-1.829c-.279-.279-.666-.439-1.061-.439z"/></g><g><path d="m20.5 17h-5c-.276 0-.5-.224-.5-.5s.224-.5.5-.5h5c.276 0 .5.224.5.5s-.224.5-.5.5z"/></g><g><path d="m20.5 20h-5c-.276 0-.5-.224-.5-.5s.224-.5.5-.5h5c.276 0 .5.224.5.5s-.224.5-.5.5z"/></g></svg>