<?xml version="1.0" encoding="UTF-8" standalone="no"?>
<svg
   xmlns:dc="http://purl.org/dc/elements/1.1/"
   xmlns:cc="http://creativecommons.org/ns#"
   xmlns:rdf="http://www.w3.org/1999/02/22-rdf-syntax-ns#"
   xmlns:svg="http://www.w3.org/2000/svg"
   xmlns="http://www.w3.org/2000/svg"
   xmlns:sodipodi="http://sodipodi.sourceforge.net/DTD/sodipodi-0.dtd"
   xmlns:inkscape="http://www.inkscape.org/namespaces/inkscape"
   height="1536"
   viewBox="0 0 1536 1536"
   width="1536"
   id="svg2"
   version="1.1"
   inkscape:version="0.91 r13725"
   sodipodi:docname="save_as.svg">
  <metadata
     id="metadata10">
    <rdf:RDF>
      <cc:Work
         rdf:about="">
        <dc:format>image/svg+xml</dc:format>
        <dc:type
           rdf:resource="http://purl.org/dc/dcmitype/StillImage" />
        <dc:title />
      </cc:Work>
    </rdf:RDF>
  </metadata>
  <defs
     id="defs8" />
  <sodipodi:namedview
     pagecolor="#ffffff"
     bordercolor="#666666"
     borderopacity="1"
     objecttolerance="10"
     gridtolerance="10"
     guidetolerance="10"
     inkscape:pageopacity="0"
     inkscape:pageshadow="2"
     inkscape:window-width="2501"
     inkscape:window-height="1056"
     id="namedview6"
     showgrid="false"
     fit-margin-top="0"
     fit-margin-left="0"
     fit-margin-right="0"
     fit-margin-bottom="0"
     inkscape:zoom="0.37249375"
     inkscape:cx="157.98818"
     inkscape:cy="760.79837"
     inkscape:window-x="59"
     inkscape:window-y="24"
     inkscape:window-maximized="1"
     inkscape:current-layer="svg2"
     showguides="true"
     inkscape:guide-bbox="true" />
  <path
     d="m 283.32716,1038.8663 566.65434,0 0,-283.32718 -566.65434,0 z m 661.09673,0 94.44241,0 0,-661.09675 c 0,-6.88641 -2.4593,-16.35526 -7.3783,-28.4065 -4.9189,-12.05123 -9.8377,-20.53629 -14.7567,-25.45517 L 809.4008,116.57732 c -4.91891,-4.91887 -13.28097,-9.83774 -25.08627,-14.75661 -11.80529,-4.918888 -21.3971,-7.378321 -28.77541,-7.378321 l 0,306.937761 c 0,19.67551 -6.8864,36.39967 -20.65928,50.17253 -13.77285,13.77285 -30.497,20.65927 -50.17252,20.65927 l -424.99075,0 c -19.6755,0 -36.39966,-6.88642 -50.17252,-20.65927 -13.77285,-13.77286 -20.65926,-30.49702 -20.65926,-50.17253 l 0,-306.937761 -94.442401,0 0,944.423911 94.442401,0 0,-306.93779 c 0,-19.67549 6.88641,-36.39966 20.65926,-50.17251 13.77286,-13.77285 30.49702,-20.65927 50.17252,-20.65927 l 613.87554,0 c 19.67551,0 36.39968,6.88642 50.1725,20.65927 13.77292,13.77285 20.65928,30.49702 20.65928,50.17251 z m -283.32716,-684.70734 0,-236.10597 c 0,-6.39454 -2.33647,-11.92827 -7.0094,-16.6012 -4.67292,-4.672935 -10.20666,-7.009401 -16.60121,-7.009401 l -330.54836,0 c -6.39453,0 -11.92827,2.336466 -16.60119,7.009401 -4.67293,4.67293 -7.00941,10.20666 -7.00941,16.6012 l 0,236.10597 c 0,6.39455 2.33648,11.92828 7.00941,16.6012 4.67292,4.67293 10.20666,7.00939 16.60119,7.00939 l 330.54836,0 c 6.39455,0 11.92829,-2.33646 16.60121,-7.00939 4.67293,-4.67292 7.0094,-10.20665 7.0094,-16.6012 z m 472.21197,23.61059 0,684.70725 c 0,19.6756 -6.8865,36.3997 -20.6593,50.1726 -13.7729,13.7728 -30.497,20.6593 -50.1726,20.6593 l -991.645008,0 c -19.675498,0 -36.399671,-6.8865 -50.172519,-20.6593 C 6.8864242,1098.8765 0,1082.1524 0,1062.4768 L 0,70.831792 C 0,51.156294 6.8864242,34.432121 20.659273,20.659273 34.432121,6.8864242 51.156294,0 70.831792,0 L 755.53912,0 c 19.67552,0 41.31854,4.9188746 64.92914,14.756624 23.6106,9.837748 42.3023,21.643047 56.07517,35.415895 L 1083.1361,256.76524 c 13.773,13.77286 25.5782,32.46459 35.416,56.07518 9.8377,23.61059 14.7566,45.25364 14.7566,64.92913 z"
     id="path4"
     inkscape:connector-curvature="0"
     style="fill:#ffffff"
     sodipodi:nodetypes="cccccccssssscssssssccccsssssscsssssssssssssssssssssssssssss" />
  <g
     id="g4157"
     transform="matrix(1.401619,0,0,1.401619,-616.32072,-597.78977)"
     style="fill:#ffffff">
    <circle
       r="83.22287"
       cy="1439.1522"
       cx="891.29016"
       id="path4134"
       style="opacity:1;fill:#ffffff;fill-opacity:1;fill-rule:nonzero;stroke:none;stroke-opacity:1" />
    <circle
       r="83.22287"
       cy="1439.1522"
       cx="1171.8317"
       id="path4134-3"
       style="opacity:1;fill:#ffffff;fill-opacity:1;fill-rule:nonzero;stroke:none;stroke-opacity:1" />
    <circle
       r="83.22287"
       cy="1439.1522"
       cx="1452.3733"
       id="path4134-6"
       style="opacity:1;fill:#ffffff;fill-opacity:1;fill-rule:nonzero;stroke:none;stroke-opacity:1" />
  </g>
</svg>
