<?xml version="1.0" encoding="UTF-8" standalone="no"?>
<svg
   xmlns:dc="http://purl.org/dc/elements/1.1/"
   xmlns:cc="http://creativecommons.org/ns#"
   xmlns:rdf="http://www.w3.org/1999/02/22-rdf-syntax-ns#"
   xmlns:svg="http://www.w3.org/2000/svg"
   xmlns="http://www.w3.org/2000/svg"
   xmlns:sodipodi="http://sodipodi.sourceforge.net/DTD/sodipodi-0.dtd"
   xmlns:inkscape="http://www.inkscape.org/namespaces/inkscape"
   height="1536"
   viewBox="0 0 1536 1536"
   width="1536"
   id="svg2"
   version="1.1"
   inkscape:version="0.91 r13725"
   sodipodi:docname="save.svg">
  <metadata
     id="metadata10">
    <rdf:RDF>
      <cc:Work
         rdf:about="">
        <dc:format>image/svg+xml</dc:format>
        <dc:type
           rdf:resource="http://purl.org/dc/dcmitype/StillImage" />
        <dc:title />
      </cc:Work>
    </rdf:RDF>
  </metadata>
  <defs
     id="defs8" />
  <sodipodi:namedview
     pagecolor="#ffffff"
     bordercolor="#666666"
     borderopacity="1"
     objecttolerance="10"
     gridtolerance="10"
     guidetolerance="10"
     inkscape:pageopacity="0"
     inkscape:pageshadow="2"
     inkscape:window-width="2501"
     inkscape:window-height="1056"
     id="namedview6"
     showgrid="false"
     fit-margin-top="0"
     fit-margin-left="0"
     fit-margin-right="0"
     fit-margin-bottom="0"
     inkscape:zoom="0.37249375"
     inkscape:cx="-287.58788"
     inkscape:cy="923.65735"
     inkscape:window-x="59"
     inkscape:window-y="24"
     inkscape:window-maximized="1"
     inkscape:current-layer="svg2"
     showguides="true"
     inkscape:guide-bbox="true">
    <sodipodi:guide
       position="383.89905,692.62906"
       orientation="1,0"
       id="guide4133" />
  </sodipodi:namedview>
  <path
     d="m 384,1408 768,0 0,-384 -768,0 z m 896,0 128,0 0,-896 c 0,-9.33333 -3.3333,-22.16667 -10,-38.5 -6.6667,-16.33333 -13.3333,-27.83333 -20,-34.5 L 1097,158 c -6.6667,-6.66667 -18,-13.33333 -34,-20 -16,-6.66667 -29,-10 -39,-10 l 0,416 c 0,26.66667 -9.3333,49.33333 -28,68 -18.66667,18.66667 -41.33333,28 -68,28 l -576,0 c -26.66667,0 -49.33333,-9.33333 -68,-28 -18.66667,-18.66667 -28,-41.33333 -28,-68 l 0,-416 -128,0 0,1280 128,0 0,-416 c 0,-26.66667 9.33333,-49.33333 28,-68 18.66667,-18.66667 41.33333,-28 68,-28 l 832,0 c 26.6667,0 49.3333,9.33333 68,28 18.6667,18.66667 28,41.33333 28,68 z M 896,480 896,160 c 0,-8.66667 -3.16667,-16.16667 -9.5,-22.5 -6.33333,-6.33333 -13.83333,-9.5 -22.5,-9.5 l -448,0 c -8.66667,0 -16.16667,3.16667 -22.5,9.5 -6.33333,6.33333 -9.5,13.83333 -9.5,22.5 l 0,320 c 0,8.66667 3.16667,16.16667 9.5,22.5 6.33333,6.33333 13.83333,9.5 22.5,9.5 l 448,0 c 8.66667,0 16.16667,-3.16667 22.5,-9.5 6.33333,-6.33333 9.5,-13.83333 9.5,-22.5 z m 640,32 0,928 c 0,26.6667 -9.3333,49.3333 -28,68 -18.6667,18.6667 -41.3333,28 -68,28 l -1344,0 c -26.666667,0 -49.333333,-9.3333 -68,-28 C 9.3333333,1489.3333 0,1466.6667 0,1440 L 0,96 C 0,69.333333 9.3333333,46.666667 28,28 46.666667,9.3333333 69.333333,0 96,0 l 928,0 c 26.6667,0 56,6.6666667 88,20 32,13.333333 57.3333,29.333333 76,48 l 280,280 c 18.6667,18.66667 34.6667,44 48,76 13.3333,32 20,61.33333 20,88 z"
     id="path4"
     inkscape:connector-curvature="0"
     style="fill:#ffffff"
     sodipodi:nodetypes="cccccccssssscssssssccccsssssscsssssssssssssssssssssssssssss" />
</svg>
