<?xml version="1.0" encoding="UTF-8" standalone="no"?>
<svg
   xmlns:dc="http://purl.org/dc/elements/1.1/"
   xmlns:cc="http://creativecommons.org/ns#"
   xmlns:rdf="http://www.w3.org/1999/02/22-rdf-syntax-ns#"
   xmlns:svg="http://www.w3.org/2000/svg"
   xmlns="http://www.w3.org/2000/svg"
   xmlns:sodipodi="http://sodipodi.sourceforge.net/DTD/sodipodi-0.dtd"
   xmlns:inkscape="http://www.inkscape.org/namespaces/inkscape"
   height="384.10001"
   id="Layer_1"
   version="1.1"
   viewBox="0 0 384 384.10001"
   width="384"
   xml:space="preserve"
   sodipodi:docname="settings.svg"
   inkscape:version="0.92.3 (2405546, 2018-03-11)"><metadata
     id="metadata9"><rdf:RDF><cc:Work
         rdf:about=""><dc:format>image/svg+xml</dc:format><dc:type
           rdf:resource="http://purl.org/dc/dcmitype/StillImage" /><dc:title></dc:title></cc:Work></rdf:RDF></metadata><defs
     id="defs7" /><sodipodi:namedview
     pagecolor="#ffffff"
     bordercolor="#666666"
     borderopacity="1"
     objecttolerance="10"
     gridtolerance="10"
     guidetolerance="10"
     inkscape:pageopacity="0"
     inkscape:pageshadow="2"
     inkscape:window-width="2493"
     inkscape:window-height="1025"
     id="namedview5"
     showgrid="false"
     fit-margin-top="0"
     fit-margin-left="0"
     fit-margin-right="0"
     fit-margin-bottom="0"
     inkscape:zoom="0.4609375"
     inkscape:cx="192"
     inkscape:cy="192.1"
     inkscape:window-x="67"
     inkscape:window-y="27"
     inkscape:window-maximized="1"
     inkscape:current-layer="Layer_1" /><path
     d="m 384,230.4 v -76.8 h -42.8 c -3.4,-14.4 -8.9,-28 -16.1,-40.5 L 354.9,83.4 300.6,29.1 271.5,58.2 C 258.9,50.5 245.1,44.7 230.4,40.9 V 0 h -76.8 v 40.9 c -14.7,3.8 -28.5,9.7 -41.1,17.3 L 83.4,29.1 29.1,83.4 58.9,113.1 c -7.2,12.5 -12.6,26.1 -16.1,40.5 H 0 v 76.8 h 44.1 c 3.8,13.7 9.5,26.6 16.7,38.6 l -31.7,31.7 54.3,54.3 32.3,-32.3 c 11.7,6.8 24.5,11.9 37.9,15.4 v 46 h 76.8 v -46 c 13.5,-3.5 26.2,-8.6 37.9,-15.4 L 300.6,355 354.9,300.7 323.3,269 c 7.2,-11.9 12.9,-24.8 16.7,-38.6 z m -192,15.4 c -29.7,0 -53.7,-24.1 -53.7,-53.8 0,-29.7 24,-53.8 53.7,-53.8 29.7,0 53.8,24.1 53.8,53.8 0,29.7 -24.1,53.8 -53.8,53.8 z"
     id="path2"
     inkscape:connector-curvature="0"
     style="fill:#ffffff" /></svg>