<?xml version="1.0" encoding="UTF-8" standalone="no"?>
<svg
   xmlns:dc="http://purl.org/dc/elements/1.1/"
   xmlns:cc="http://creativecommons.org/ns#"
   xmlns:rdf="http://www.w3.org/1999/02/22-rdf-syntax-ns#"
   xmlns:svg="http://www.w3.org/2000/svg"
   xmlns="http://www.w3.org/2000/svg"
   xmlns:sodipodi="http://sodipodi.sourceforge.net/DTD/sodipodi-0.dtd"
   xmlns:inkscape="http://www.inkscape.org/namespaces/inkscape"
   height="512px"
   id="Layer_1"
   version="1.1"
   viewBox="0 0 512 512"
   width="512px"
   xml:space="preserve"
   inkscape:version="0.91 r13725"
   sodipodi:docname="snapshot.svg"
   style="enable-background:new 0 0 512 512;"><metadata
     id="metadata17"><rdf:RDF><cc:Work
         rdf:about=""><dc:format>image/svg+xml</dc:format><dc:type
           rdf:resource="http://purl.org/dc/dcmitype/StillImage" /><dc:title></dc:title></cc:Work></rdf:RDF></metadata><defs
     id="defs15" /><sodipodi:namedview
     pagecolor="#ffffff"
     bordercolor="#666666"
     borderopacity="1"
     objecttolerance="10"
     gridtolerance="10"
     guidetolerance="10"
     inkscape:pageopacity="0"
     inkscape:pageshadow="2"
     inkscape:window-width="2501"
     inkscape:window-height="1056"
     id="namedview13"
     showgrid="false"
     inkscape:zoom="1.3037281"
     inkscape:cx="32.439161"
     inkscape:cy="196.62009"
     inkscape:window-x="59"
     inkscape:window-y="24"
     inkscape:window-maximized="1"
     inkscape:current-layer="Layer_1" /><g
     id="g3"
     transform="matrix(1.3302495,0,0,1.3302495,-84.051222,-84.543872)"
     style="fill:#ffffff"><path
       d="m 417.5,160 -61.7,0 c -32.1,-36 -42.2,-48 -54.5,-48 l -88.5,0 c -12.3,0 -22.2,12 -54.5,48 l -13.3,0 0,-16 -34,0 0,16 -13.5,0 C 79.9,160 64,173.2 64,190.7 l 0,176 c 0,17.5 15.9,33.3 33.5,33.3 l 320,0 c 17.6,0 30.5,-15.8 30.5,-33.3 l 0,-176 C 448,173.2 435.1,160 417.5,160 Z M 432,366.7 c 0,9.3 -6.2,17.3 -14.5,17.3 l -320,0 C 88.8,384 80,375.3 80,366.7 l 0,-176 C 80,182.5 88.1,176 97.5,176 l 60.7,0 7.1,0 4.8,-3.2 c 4,-4.5 7.7,-10 11.1,-13.8 11.3,-12.7 19.5,-21.7 25.3,-26.9 4.7,-4.2 6.2,-4.1 6.2,-4.1 l 88.5,0 c 0,0 1.6,-0.1 6.7,4.5 6.1,5.5 14.7,16.5 26.6,29.8 2.9,3.3 6,6.8 9.3,10.5 l 4.8,3.2 7.2,0 61.7,0 c 8.8,0 14.5,6 14.5,14.7 l 0,176 z"
       id="path5"
       inkscape:connector-curvature="0"
       style="fill:#ffffff" /><path
       d="m 256,189.5 c -47.1,0 -85.5,38.4 -85.5,85.5 0,47.1 38.4,85.5 85.5,85.5 47.1,0 85.5,-38.4 85.5,-85.5 0,-47.1 -38.4,-85.5 -85.5,-85.5 z m 0,155 c -38.4,0 -69.5,-31.1 -69.5,-69.5 0,-38.4 31.1,-69.5 69.5,-69.5 38.4,0 69.5,31.1 69.5,69.5 0,38.4 -31.1,69.5 -69.5,69.5 z"
       id="path7"
       inkscape:connector-curvature="0"
       style="fill:#ffffff" /><rect
       height="17"
       width="17"
       x="352"
       y="192"
       id="rect9"
       style="fill:#ffffff" /><circle
       cx="256"
       cy="275"
       r="32"
       id="circle11"
       style="fill:#ffffff" /></g></svg>