<?xml version="1.0" encoding="UTF-8" standalone="no"?>
<svg
   xmlns:dc="http://purl.org/dc/elements/1.1/"
   xmlns:cc="http://creativecommons.org/ns#"
   xmlns:rdf="http://www.w3.org/1999/02/22-rdf-syntax-ns#"
   xmlns:svg="http://www.w3.org/2000/svg"
   xmlns="http://www.w3.org/2000/svg"
   xmlns:sodipodi="http://sodipodi.sourceforge.net/DTD/sodipodi-0.dtd"
   xmlns:inkscape="http://www.inkscape.org/namespaces/inkscape"
   enable-background="new 0 0 24 24"
   height="24px"
   id="Layer_1"
   version="1.1"
   viewBox="0 0 24 24"
   width="24px"
   xml:space="preserve"
   inkscape:version="0.92.3 (2405546, 2018-03-11)"
   sodipodi:docname="audio_enabled.svg"><metadata
     id="metadata13"><rdf:RDF><cc:Work
         rdf:about=""><dc:format>image/svg+xml</dc:format><dc:type
           rdf:resource="http://purl.org/dc/dcmitype/StillImage" /></cc:Work></rdf:RDF></metadata><defs
     id="defs11" /><sodipodi:namedview
     pagecolor="#ffffff"
     bordercolor="#666666"
     borderopacity="1"
     objecttolerance="10"
     gridtolerance="10"
     guidetolerance="10"
     inkscape:pageopacity="0"
     inkscape:pageshadow="2"
     inkscape:window-width="2493"
     inkscape:window-height="1025"
     id="namedview9"
     showgrid="false"
     inkscape:zoom="27.812866"
     inkscape:cx="13.217872"
     inkscape:cy="14.967553"
     inkscape:window-x="67"
     inkscape:window-y="27"
     inkscape:window-maximized="1"
     inkscape:current-layer="g5" /><g
     id="g3"><g
       id="g5"><path
         d="m 19.66818,3.0480754 -1.140169,1.7076875 c 2.084323,1.6933199 3.41948,4.2753761 3.41948,7.1704401 0,2.89609 -1.335157,5.478146 -3.41948,7.171466 L 19.66818,20.80433 C 22.301549,18.739506 24,15.534514 24,11.926203 24,8.3189184 22.302575,5.1139257 19.66818,3.0480754 Z m -2.287521,3.4256375 -1.151458,1.7241075 c 0.993414,0.9369703 1.621482,2.2557076 1.621482,3.7294086 0,1.473702 -0.628068,2.793465 -1.621482,3.730435 l 1.151458,1.724108 c 1.536303,-1.319763 2.514323,-3.271699 2.514323,-5.455569 0,-2.1828434 -0.976994,-4.1347794 -2.514323,-5.4524901 z M 12.422918,0.71120082 c -1.207902,0 -1.573248,0.70195808 -1.573248,0.70195808 0,0 -3.1413653,3.4512938 -5.3047097,4.9742554 C 5.1467735,6.6408992 4.7095891,6.8687276 3.9357933,6.8687276 H 2.160373 c -1.1329849,0 -2.05250891,0.9195241 -2.05250891,2.052509 v 6.1575264 c 0,1.132985 0.91952401,2.052509 2.05250891,2.052509 h 1.7754203 c 0.7737958,0 1.2109802,0.227829 1.6081407,0.481314 2.1633444,1.522961 5.304709,4.975281 5.304709,4.975281 0,0 0.366373,0.700932 1.574275,0.700932 1.132985,0 2.052509,-0.918498 2.052509,-2.052509 V 2.7637098 c 0,-1.1340112 -0.919524,-2.05250898 -2.052509,-2.05250898 z"
         id="path7"
         inkscape:connector-curvature="0"
         style="clip-rule:evenodd;fill:#ffffff;fill-opacity:1;fill-rule:evenodd;stroke-width:1.02625442"
         sodipodi:nodetypes="ccsccscccsccscsccssssssccssss" /></g></g></svg>