<svg width="234" height="60" viewBox="0 0 234 60" fill="none" xmlns="http://www.w3.org/2000/svg">
<path d="M30 4.23428C35.096 4.23428 40.0775 5.74542 44.3147 8.57659C48.5518 11.4078 51.8543 15.4318 53.8044 20.1399C55.7546 24.848 56.2648 30.0286 55.2706 35.0266C54.2765 40.0247 51.8225 44.6157 48.2191 48.2191C44.6157 51.8225 40.0247 54.2764 35.0266 55.2706C30.0286 56.2648 24.848 55.7546 20.1399 53.8044C15.4318 51.8543 11.4078 48.5518 8.5766 44.3147C5.74543 40.0775 4.2343 35.096 4.2343 30C4.24224 23.1689 6.95938 16.6199 11.7897 11.7897C16.62 6.95937 23.169 4.24222 30 4.23428ZM30 0C24.0666 0 18.2664 1.75947 13.3329 5.05591C8.39943 8.35235 4.55426 13.0377 2.28363 18.5195C0.0129986 24.0013 -0.581101 30.0333 0.576455 35.8527C1.73401 41.6721 4.59123 47.0176 8.78681 51.2132C12.9824 55.4088 18.3279 58.266 24.1473 59.4235C29.9667 60.5811 35.9987 59.987 41.4805 57.7164C46.9623 55.4457 51.6476 51.6006 54.9441 46.6671C58.2405 41.7336 60 35.9334 60 30C60 22.0435 56.8393 14.4129 51.2132 8.78679C45.5871 3.1607 37.9565 0 30 0Z" fill="black"/>
<path d="M25.2211 42.9474V39.9158H23.7684C21.9684 39.9158 21.3368 38.8421 21.3368 37.1684V34.5474C21.3368 32.3053 20.4211 30.6 18.3368 29.9053C20.4211 29.1789 21.3368 27.5053 21.3368 25.2316V22.6421C21.3368 20.9684 21.9684 19.8947 23.7684 19.8947H25.2211V16.8632H22.5684C19.4421 16.8632 17.2947 18.7263 17.2947 22.1053V25.9895C17.2947 27.3474 16.8526 28.3895 15.1158 28.3895H13.6V31.4211H15.1158C16.8526 31.4211 17.2947 32.4632 17.2947 33.8211V37.7053C17.2947 41.0842 19.4421 42.9474 22.5684 42.9474H25.2211Z" fill="black"/>
<path d="M45.9102 31.4211V28.3895H44.426C42.6891 28.3895 42.2155 27.3789 42.2155 25.9895V22.1053C42.2155 18.7263 40.0997 16.8632 36.9734 16.8632H34.2891V19.8947H35.7418C37.5734 19.8947 38.1734 20.9684 38.1734 22.6421V25.2632C38.1734 27.5053 39.1207 29.2105 41.1734 29.9053C39.1207 30.6316 38.1734 32.3053 38.1734 34.5789V37.1684C38.1734 38.8421 37.5734 39.9158 35.7418 39.9158H34.2891V42.9474H36.9734C40.0997 42.9474 42.2155 41.0842 42.2155 37.7053V33.8211C42.2155 32.4632 42.6891 31.4211 44.426 31.4211H45.9102Z" fill="black"/>
<path d="M100.116 30V10.7211H95.2237L89.7237 25.7737L84.2237 10.7211H79.2447V30H82.5447V14.3105L88.2474 30H91.0842L96.8158 14.2816V30H100.116Z" fill="black"/>
<path d="M118.084 14.8026H114.639L110.76 25.7737L106.418 14.8026H102.742L109.11 29.7974L108.705 30.6368C108.155 31.7658 107.547 32.6342 106.302 32.6342C105.637 32.6342 105.029 32.4026 104.508 32.0263L103.205 34.2842C104.189 34.9789 105.318 35.3263 106.65 35.3263C109.544 35.3263 110.876 33.7342 112.063 30.6079L118.084 14.8026Z" fill="black"/>
<path d="M141.643 30V10.7211H136.751L131.251 25.7737L125.751 10.7211H120.772V30H124.072V14.3105L129.774 30H132.611L138.343 14.2816V30H141.643Z" fill="black"/>
<path d="M160.248 22.0974C160.248 17.7263 157.44 14.4553 152.837 14.4553C148.061 14.4553 145.195 17.9579 145.195 22.4737C145.195 26.9605 148.032 30.3474 153.156 30.3474C156.05 30.3474 158.164 29.2763 159.756 27.5974L157.672 25.6C156.543 26.8158 155.066 27.5105 153.272 27.5105C150.579 27.5105 148.756 25.9763 148.611 23.1974H160.19C160.219 22.9368 160.248 22.5605 160.248 22.0974ZM148.669 20.8816C148.843 18.6237 150.464 17.0316 152.866 17.0316C155.037 17.0316 156.803 18.3342 157.035 20.8816H148.669Z" fill="black"/>
<path d="M166.607 30V21.4316C166.607 18.9421 168.199 17.3789 170.341 17.3789C172.744 17.3789 173.207 19.0868 173.207 20.7658V30H176.391V21.4316C176.391 18.9421 178.012 17.3789 180.125 17.3789C182.528 17.3789 182.991 19.0868 182.991 20.7658V30H186.175V20.0132C186.175 16.6553 184.41 14.4553 181.081 14.4553C178.968 14.4553 177.115 15.4684 175.783 17.35C175.118 15.4974 173.583 14.4553 171.354 14.4553C169.386 14.4553 167.823 15.3526 166.607 16.9737V14.8026H163.423V30H166.607Z" fill="black"/>
<path d="M204.666 22.4158C204.666 17.7553 201.685 14.4553 196.966 14.4553C192.248 14.4553 189.266 17.7553 189.266 22.4158C189.266 27.0474 192.248 30.3474 196.966 30.3474C201.685 30.3474 204.666 27.0474 204.666 22.4158ZM201.251 22.4158C201.251 25.3395 199.716 27.5684 196.966 27.5684C194.216 27.5684 192.653 25.3395 192.653 22.4158C192.653 19.4632 194.216 17.2342 196.966 17.2342C199.716 17.2342 201.251 19.4632 201.251 22.4158Z" fill="black"/>
<path d="M217.441 15.0342C217.007 14.7447 216.254 14.5132 215.415 14.5132C213.649 14.5132 212.144 15.6711 211.131 17.2632V14.8026H207.946V30H211.131V22.2711C211.131 19.3763 212.838 17.6974 214.778 17.6974C215.473 17.6974 216.023 17.9 216.515 18.1605L217.441 15.0342Z" fill="black"/>
<path d="M233.167 14.8026H229.722L225.843 25.7737L221.501 14.8026H217.825L224.193 29.7974L223.788 30.6368C223.238 31.7658 222.63 32.6342 221.385 32.6342C220.719 32.6342 220.111 32.4026 219.59 32.0263L218.288 34.2842C219.272 34.9789 220.401 35.3263 221.733 35.3263C224.627 35.3263 225.959 33.7342 227.146 30.6079L233.167 14.8026Z" fill="black"/>
<path d="M79.4968 41.5833V52.1054H81.1179V50.9706C81.8252 51.899 82.7242 52.2822 83.741 52.2822C85.9221 52.2822 87.2779 50.5285 87.2779 48.2296C87.2779 45.9454 85.9368 44.1917 83.741 44.1917C82.7242 44.1917 81.8252 44.5748 81.1179 45.5033V41.5833H79.4968ZM81.1179 48.2443C81.1179 46.8296 81.8989 45.6506 83.3726 45.6506C84.8463 45.6506 85.5537 46.8296 85.5537 48.2443C85.5537 49.6738 84.8463 50.8233 83.3726 50.8233C81.8989 50.8233 81.1179 49.6885 81.1179 48.2443Z" fill="#808080"/>
<path d="M95.5421 44.3685H93.7885L91.8137 49.9538L89.6032 44.3685H87.7316L90.9737 52.0022L90.7674 52.4296C90.4874 53.0043 90.1779 53.4464 89.5442 53.4464C89.2053 53.4464 88.8958 53.3285 88.6306 53.1369L87.9674 54.2864C88.4685 54.6401 89.0432 54.8169 89.7211 54.8169C91.1948 54.8169 91.8727 54.0064 92.4769 52.4148L95.5421 44.3685Z" fill="#808080"/>
<path d="M105.284 51.9634C104.734 52.3692 104.064 52.5787 103.381 52.5586C102.405 52.5586 101.659 52.2379 101.222 51.5379C100.948 51.1262 100.841 50.6389 100.841 49.8618V45.6724H99.5V44.3787H100.841V42.2308H102.538V44.3787H105.005V45.6724H102.538V49.8772C102.538 50.6852 102.918 51.0645 103.617 51.0645C103.982 51.0669 104.337 50.9433 104.622 50.7145L105.284 51.9634Z" fill="#808080"/>
<path d="M111.194 46.1504C110.915 45.993 110.6 45.9091 110.28 45.9067C109.259 45.9067 108.36 46.7903 108.36 48.3121V52.3797H106.685V44.3787H108.36V45.6724C108.893 44.8351 109.686 44.226 110.614 44.226C110.988 44.2171 111.358 44.3121 111.681 44.5005L111.194 46.1504Z" fill="#808080"/>
<path d="M119.068 52.497C118.321 52.497 117.636 52.147 117.468 51.3097C116.813 52.2534 115.747 52.5587 114.803 52.5587C113.158 52.5587 112.06 51.6597 112.06 50.0916C112.06 48.1118 113.812 47.8065 115.184 47.6554C116.341 47.5336 117.209 47.4256 117.209 46.6501C117.209 45.8745 116.325 45.6293 115.579 45.6293C114.684 45.6399 113.813 45.921 113.081 46.4357L112.412 45.1714C113.386 44.5245 114.532 44.1846 115.701 44.1953C117.59 44.1953 118.916 44.957 118.916 46.8767V50.5172C118.916 51.0353 119.082 51.2481 119.479 51.2481C119.633 51.2543 119.786 51.2175 119.921 51.1417L120.103 52.2996C119.775 52.4337 119.423 52.5008 119.068 52.497ZM117.218 48.1257C116.756 48.7039 116.076 48.7039 115.223 48.8411C114.37 48.9784 113.746 49.222 113.746 50.0592C113.746 50.8965 114.386 51.2481 115.207 51.2481C116.259 51.2481 117.212 50.6853 117.212 49.3438L117.218 48.1257Z" fill="#808080"/>
<path d="M121.169 52.3752V44.3788H122.845V45.5507C123.5 44.6826 124.387 44.1953 125.466 44.1953C127.218 44.1953 128.223 45.3687 128.223 47.1666V52.3752H126.545V47.5459C126.545 46.6932 126.272 45.7341 124.962 45.7341C123.773 45.7341 122.845 46.5714 122.845 47.8928V52.3644L121.169 52.3752Z" fill="#808080"/>
<path d="M133.14 52.5587C131.51 52.5587 130.186 51.9342 129.424 50.7608L130.613 49.9235C131.23 50.7762 132.196 51.1879 133.234 51.1879C134.224 51.1879 134.893 50.8209 134.893 50.1209C134.893 49.39 134.162 49.2374 132.869 49.0246C131.193 48.7347 129.853 48.2629 129.853 46.6177C129.853 44.9724 131.33 44.1953 132.991 44.1953C134.605 44.1953 135.777 44.8969 136.432 45.5969L135.367 46.5714C135.062 46.2427 134.691 45.983 134.277 45.8096C133.864 45.6362 133.418 45.5532 132.97 45.5661C132.209 45.5661 131.478 45.8405 131.478 46.465C131.478 47.1666 132.331 47.3177 133.381 47.5012C135.088 47.8096 136.549 48.2475 136.549 49.9374C136.552 51.5071 135.273 52.5587 133.14 52.5587Z" fill="#808080"/>
<path d="M138.045 41.5H139.719V50.2889C139.719 50.9427 139.994 51.1262 140.421 51.1262C140.66 51.13 140.896 51.0722 141.106 50.9581L141.426 52.2379C141.027 52.4441 140.581 52.5439 140.131 52.5278C139.385 52.5278 138.743 52.2996 138.38 51.7969C138.12 51.4161 138.045 50.9736 138.045 50.2735V41.5Z" fill="#808080"/>
<path d="M149.057 52.497C148.311 52.497 147.625 52.147 147.457 51.3097C146.803 52.2533 145.736 52.5586 144.792 52.5586C143.147 52.5586 142.051 51.6597 142.051 50.0916C142.051 48.1117 143.802 47.8065 145.173 47.6553C146.33 47.5335 147.198 47.4256 147.198 46.65C147.198 45.8744 146.316 45.6293 145.569 45.6293C144.674 45.6395 143.803 45.9207 143.07 46.4357L142.401 45.1713C143.375 44.5248 144.522 44.1853 145.691 44.1968C147.579 44.1968 148.905 44.9585 148.905 46.8782V50.5187C148.905 51.0368 149.073 51.2496 149.467 51.2496C149.622 51.2558 149.775 51.219 149.91 51.1432L150.092 52.3011C149.764 52.4348 149.412 52.5014 149.057 52.497V52.497ZM147.207 48.1256C146.744 48.7038 146.066 48.7038 145.212 48.8411C144.357 48.9783 143.735 49.2219 143.735 50.0592C143.735 50.8965 144.374 51.248 145.196 51.248C146.248 51.248 147.201 50.6852 147.201 49.3437L147.207 48.1256Z" fill="#808080"/>
<path d="M156.017 51.9634C155.467 52.3694 154.797 52.579 154.113 52.5586C153.139 52.5586 152.392 52.2379 151.955 51.5379C151.68 51.1262 151.574 50.6389 151.574 49.8618V45.6724H150.234V44.3787H151.574V42.2308H153.27V44.3787H155.737V45.6724H153.27V49.8772C153.27 50.6852 153.651 51.0645 154.349 51.0645C154.715 51.0676 155.07 50.9439 155.354 50.7145L156.017 51.9634Z" fill="#808080"/>
<path d="M164.501 48.7964H158.412C158.489 50.2581 159.448 51.0646 160.865 51.0646C161.3 51.0711 161.731 50.9848 162.13 50.8115C162.529 50.6381 162.886 50.3816 163.178 50.0592L164.276 51.1108C163.437 51.9943 162.326 52.5587 160.802 52.5587C158.107 52.5587 156.614 50.7762 156.614 48.4155C156.614 46.0549 158.122 44.1953 160.636 44.1953C163.056 44.1953 164.534 45.9176 164.534 48.2166C164.533 48.4103 164.523 48.6039 164.501 48.7964V48.7964ZM162.841 47.5767C162.719 46.2368 161.789 45.5507 160.646 45.5507C159.384 45.5507 158.529 46.3895 158.438 47.5767H162.841Z" fill="#808080"/>
<path d="M171.842 52.3752V51.2018C171.538 51.6312 171.133 51.9795 170.663 52.2161C170.193 52.4526 169.672 52.5703 169.145 52.5586C166.876 52.5586 165.474 50.7454 165.474 48.3847C165.474 46.024 166.876 44.1953 169.145 44.1953C169.672 44.182 170.193 44.2987 170.664 44.5351C171.134 44.7716 171.539 45.1204 171.842 45.5506V41.5H173.538V52.3752H171.842ZM169.514 45.7033C167.991 45.7033 167.26 46.9075 167.26 48.3847C167.26 49.8618 167.991 51.0507 169.514 51.0507C171.037 51.0507 171.845 49.8618 171.845 48.3847C171.845 46.9075 171.034 45.7033 169.514 45.7033Z" fill="#808080"/>
<path d="M178.041 52.3752V44.0488H179.737V50.9489H184.255V52.3814L178.041 52.3752Z" fill="#0057AA"/>
<path d="M191.702 52.3752L190.894 50.3491H187.269L186.463 52.3752H184.742L188.134 44.0488H190.1L193.492 52.3752H191.702ZM189.096 45.4443L187.741 49.0092H190.422L189.096 45.4443Z" fill="#0057AA"/>
<path d="M198.465 52.3752H194.276V44.0488H198.266C199.927 44.0488 201.008 44.8198 201.008 46.1212C201.009 46.4948 200.904 46.861 200.704 47.1768C200.504 47.4926 200.219 47.7447 199.881 47.9036C200.841 48.2999 201.328 49.0308 201.328 49.9744C201.328 51.3699 200.323 52.3752 198.465 52.3752ZM198.175 45.4288H195.967V47.384H198.144C198.861 47.384 199.302 46.9569 199.302 46.3787C199.302 45.7187 198.784 45.4288 198.175 45.4288V45.4288ZM198.348 48.6885H195.967V50.989H198.373C199.134 50.989 199.606 50.5264 199.606 49.8619C199.606 49.1973 199.18 48.6885 198.348 48.6885Z" fill="#0057AA"/>
<path d="M204.252 46.2214C204.252 46.9522 204.967 47.1049 206.125 47.3331C207.821 47.6692 209.4 48.0948 209.4 49.8464C209.4 51.4454 208.076 52.5587 205.897 52.5587C204.084 52.5587 202.85 51.797 202.135 50.6698L203.415 49.8989C203.993 50.8425 205.06 51.2079 205.988 51.2079C206.964 51.2079 207.695 50.7978 207.695 50.0515C207.695 49.259 206.903 49.0755 205.47 48.818C203.811 48.5096 202.576 47.9345 202.576 46.3817C202.576 44.7365 203.977 43.8684 205.76 43.8684C207.314 43.8684 208.486 44.5237 209.263 45.4828L208.121 46.3509C207.832 45.9958 207.467 45.7101 207.053 45.515C206.639 45.3199 206.187 45.2204 205.729 45.2238C204.998 45.216 204.252 45.4751 204.252 46.2214Z" fill="#0057AA"/>
</svg>
